<svg width="548" height="200" viewBox="0 0 548 200" fill="none" xmlns="http://www.w3.org/2000/svg">
<g clip-path="url(#clip0_74_274)">
<path fill-rule="evenodd" clip-rule="evenodd" d="M145.724 37.5784C142.771 35.5999 136.647 26.5876 123.744 26.5876C115.872 26.5876 112.957 26.8622 106.134 30.2512C100.248 33.1721 95.7654 37.4973 92.3883 43.0956C81.6388 60.9143 84.8723 92.2141 105.897 102.93C117.314 108.753 132.215 108.398 141.566 98.9983L145.73 94.6544V105.289H167.716V0H145.73V37.5784H145.724ZM128.707 87.9139C121.653 87.9139 118.251 86.4784 113.544 81.448C105.841 73.222 106.634 53.8056 118.775 47.4957C124.393 44.5748 130.392 44.5935 136.042 47.6143C138.214 48.7752 139.644 50.2668 141.21 52.0206C147.378 58.9047 147.522 73.8399 141.379 81.0797C138.37 84.6247 133.632 87.9139 128.713 87.9139H128.707Z" fill="#221E1F"/>
<path fill-rule="evenodd" clip-rule="evenodd" d="M469.089 38.6392V28.0042H447.109V128.326H469.089V95.7152C471.049 97.0258 473.247 100.477 478.066 103.042C489.564 109.171 504.421 107.486 514.178 99.6721C523.124 92.501 528.299 80.7113 528.299 69.1276V64.1658C528.299 44.3562 513.142 26.5874 494.97 26.5874C483.709 26.5874 478.49 28.7157 471.118 36.4173C470.331 37.2349 469.975 38.04 469.083 38.6392M486.106 45.3735C493.16 45.3735 496.562 46.809 501.269 51.8394C506.182 57.082 507.549 67.0805 504.946 74.8508C504.059 77.4971 503.029 79.3133 501.431 81.2668C495.807 88.1446 486.718 89.9171 478.765 85.6731C467.322 79.5629 466.18 60.7581 473.428 52.2076C474.845 50.5412 476.549 48.8311 478.528 47.7389C480.388 46.7153 483.409 45.3735 486.094 45.3735H486.106Z" fill="#221E1F"/>
<path fill-rule="evenodd" clip-rule="evenodd" d="M6.73561 33.6776C6.73561 34.2206 11.611 49.4118 12.0542 50.3417C19.7886 46.6282 43.9906 41.5041 48.7224 54.0927C49.64 56.5268 49.64 57.7937 49.64 60.9767C48.2854 60.8644 47.5987 60.4338 46.3003 60.0593C44.9207 59.6661 43.9469 59.4414 42.586 59.1668C31.8927 57.0323 17.1043 57.6627 8.70198 64.0037C1.17358 69.6957 0 75.756 0 85.0804C0 97.4692 12.1978 106.706 24.4642 106.706C31.3059 106.706 34.5645 106.625 40.7757 103.866C42.2926 103.192 44.0842 101.975 45.3889 101.033L49.64 97.4879V105.283H70.9143V57.4255C70.9143 38.7892 57.7052 27.2929 39.0028 27.2929C31.0312 27.2929 26.7302 27.193 18.8585 29.134C17.1543 29.5522 6.73561 32.6041 6.73561 33.6776ZM33.6843 91.4589C18.4277 91.4589 18.8834 77.7656 25.8937 73.7463C31.9863 70.2512 40.3575 70.9752 46.8496 72.9786C48.0482 73.3468 48.8971 73.8337 49.9958 74.0896C49.9958 81.0922 49.9521 83.3391 46.1942 86.9527C43.4974 89.5366 38.8593 91.4589 33.6843 91.4589Z" fill="#221E1F"/>
<path fill-rule="evenodd" clip-rule="evenodd" d="M264.149 56.3143C261.397 59.1041 261.59 61.6755 251.739 62.7241C243.368 63.6166 241.265 62.1748 235.078 60.5584C234.429 68.9341 222.175 73.6337 215.302 67.2739C213.673 65.7698 211.588 63.086 211.326 60.4023C208.629 61.1575 207.306 61.9751 203.947 62.5431C201.013 63.0361 197.711 63.0611 194.652 62.7553C189.821 62.2809 185.476 61.3198 182.885 57.5126L181.899 56.2207C181.899 65.1457 183.597 72.2606 186.2 78.6454C189.652 87.1085 196.762 94.7603 202.905 101.651L215.146 116.005C217.25 118.265 218.854 121.61 223.037 121.61C226.926 121.61 228.986 118.452 230.784 116.218C231.333 115.537 231.757 115.231 232.307 114.551L243.044 101.888C247.751 95.84 255.11 89.0558 258.7 81.0296C259.174 79.9748 259.33 79.5691 259.792 78.5768C262.782 72.2294 264.162 63.6353 264.162 56.3143" fill="#FDE300"/>
<path fill-rule="evenodd" clip-rule="evenodd" d="M286.841 28.0042H277.621V46.7903H286.841V86.1412C286.841 88.6689 287.602 92.707 288.301 94.6105C291.061 102.15 297.746 106.706 306.698 106.706C312.372 106.706 314.588 106.981 320.175 105.289C322.61 104.553 324.938 102.911 326.911 102.45V84.7244C324.133 84.9554 308.827 93.3685 308.827 78.6954V46.7903H327.267V28.0042H308.827V8.15088H286.841V28.0042Z" fill="#221E1F"/>
<path fill-rule="evenodd" clip-rule="evenodd" d="M181.893 56.227L182.879 57.5189C185.469 61.3261 189.814 62.281 194.646 62.7615C197.711 63.0611 201.013 63.0424 203.941 62.5493C207.299 61.9814 208.623 61.17 211.319 60.4086C212.037 59.747 212.337 59.6909 212.936 59.048C216.057 55.6777 219.041 46.809 220.427 44.6745C220.995 42.4214 221.819 41.7161 224.504 42.2404L225.69 44.6745C226.37 46.1724 226.963 47.6078 227.618 48.931C228.336 50.379 228.854 51.7645 229.629 53.2998C231.227 56.4829 232.4 58.5737 235.066 60.5646C241.252 62.1873 243.356 63.6228 251.727 62.7303C261.577 61.6818 261.384 59.1104 264.137 56.3206C264.38 55.3532 266.134 51.7021 267.052 47.9386C268.201 43.214 267.058 42.6149 270.872 40.0622V30.8439C268.288 29.6082 258.818 27.742 255.273 27.8481C231.283 27.1616 233.162 32.061 223.005 32.0485C216.944 32.0485 213.61 29.7767 207.836 28.6158C202.087 27.4612 196.793 27.6359 190.738 27.8544C190.02 27.9605 187.879 28.0229 186.674 28.1976C183.478 28.672 177.542 29.6831 175.138 30.8377V40.056C179.227 42.7959 177.211 41.067 178.99 47.5517C179.383 48.9747 179.72 50.5724 180.245 51.9642C180.838 53.5245 181.424 54.6604 181.874 56.2207M200.913 34.3452C199.971 35.6809 196.113 36.4797 196.381 34.0644C196.587 32.2482 200.345 32.2295 200.913 34.3452ZM235.578 49.7736C232.288 51.1029 231.039 40.7675 231.027 39.3445C230.983 34.364 235.865 33.4215 240.403 33.1719C244.511 32.9472 245.06 35.0817 242.332 35.9555C240.147 36.6545 238.106 35.9617 236.489 37.572C232.706 41.3417 236.639 47.2022 235.578 49.7736ZM245.74 35.3813C245.428 34.5325 245.434 33.8397 245.778 33.0471C247.519 32.6039 248.78 32.891 249.892 33.665C249.642 35.6372 247.613 35.762 245.74 35.3813ZM183.665 42.8957C183.665 40.8736 183.297 38.1524 183.896 36.3861C184.439 34.7696 185.713 33.4715 187.604 33.3217C189.115 32.0922 193.16 32.7225 194.871 33.1906L194.771 35.5873C191.468 36.7169 188.297 35.8743 186.943 39.4131C185.813 42.3527 187.542 48.1571 185.8 50.0107C183.466 49.5239 183.665 45.0614 183.672 42.902L183.665 42.8957Z" fill="#221E1F"/>
<path fill-rule="evenodd" clip-rule="evenodd" d="M365.202 42.8961V28.0045H343.223V105.283H365.202V78.34C365.202 60.5837 371.407 49.6241 390.022 49.6241V26.5815C383.255 26.5815 378.199 27.112 372.918 31.8117C371.201 33.3408 369.978 34.8574 368.673 36.7859C367.244 38.9017 366.051 41.91 365.202 42.8899" fill="#221E1F"/>
<path fill-rule="evenodd" clip-rule="evenodd" d="M243.587 157.747C243.449 163.813 240.141 165.717 242.875 169.799C249.548 169.799 250.996 166.31 253.868 165.548C253.868 171.14 261.321 171.496 267.083 165.998C268.444 164.7 270.373 162.465 270.872 160.568C270.991 160.125 271.016 159.625 271.022 159.6C271.309 158.596 271.21 158.783 274.449 158.121C275.717 157.859 278.082 157.422 279.393 157.391C279.293 158.571 279.044 159.008 278.688 159.875C278.276 160.88 278.176 161.298 277.82 162.553C277.265 164.519 276.946 165.929 276.516 167.989C276.247 169.287 275.217 173.238 277.851 172.607C279.543 172.201 279.562 169.505 280.242 167.814C280.667 166.753 280.798 166.665 281.16 165.542L287.896 148.173C289.687 147.311 294.088 147.293 296.404 146.756L293.445 152.66C293.152 153.209 292.946 153.521 292.69 154.033C292.297 154.826 292.284 154.976 291.866 155.693L288.957 161.648C287.452 165.018 284.843 168.962 286.834 171.933C287.871 171.69 287.153 171.996 288.064 171.384C288.152 171.328 288.376 171.128 288.457 171.066L290.199 169.973C290.898 169.543 290.823 169.499 291.373 169.018C293.133 167.458 303.102 160.655 304.919 160.231C304.813 160.674 298.751 171.34 308.564 168.837C311.779 168.02 315.194 164.581 320.169 163.42C319.595 165.885 318.752 165.355 318.752 169.093C322.778 171.222 324.888 169.48 327.991 167.695C329.789 166.659 334.539 163.876 336.481 163.42C335.532 165.211 335.201 167.321 334.352 169.093L335.494 170.079C338.697 170.154 338.503 169.299 340.289 167.577C341.169 166.728 341.568 166.616 342.423 165.81L348.735 160.78C349.852 159.931 352.255 158.078 353.498 157.747C353.46 159.357 352.711 162.378 352.293 163.988C351.487 167.065 351.232 167.477 352.792 169.799C355.657 169.799 356.344 169.636 358.354 168.625C360.433 167.577 361.837 166.36 363.073 166.254C363.098 167.408 363.13 167.552 363.798 168.007C364.441 168.444 364.821 168.382 365.883 168.407C370.546 168.513 371.782 167.452 375.471 164.818C376.395 164.157 376.095 164.075 377.256 163.763C377.057 164.618 376.258 166.322 375.902 167.021C375.003 168.781 375.384 167.546 373.143 169.224C365.933 174.642 351.837 185.745 350.083 195.094C348.273 204.756 362.349 199.132 370.808 186.737C372.212 184.671 373.055 182.837 374.354 180.708C375.852 178.249 376.794 175.572 377.675 174.105C382.069 166.784 377.668 169.755 387.119 164.05C389.204 162.79 390.99 161.735 393.112 160.468C394.56 159.6 394.679 158.958 395.946 158.34C397.763 157.46 397.725 158.059 398.886 156.318C396.633 156.367 392.432 158.471 390.615 159.388L382.581 163.052C383.056 161.005 383.998 159.538 383.998 157.029C379.791 154.214 382.219 157.173 371.445 163.62C370.546 164.157 370.04 164.369 369.185 164.905C368.236 165.498 367.949 165.785 366.632 165.898C367.387 164.469 367.936 163.12 369.023 161.91C371.582 159.057 374.684 156.218 377.924 154.146C378.848 153.559 379.279 153.465 379.397 152.074C376.838 152.074 374.541 153.453 372.45 154.695C371.326 155.363 370.802 155.912 369.921 156.773C368.923 157.747 368.286 158.028 367.256 159.07L363.361 163.326C360.882 164.905 358.154 165.754 355.651 166.959C355.732 163.314 357.78 158.096 357.78 155.263C354.827 153.702 353.729 153.865 349.122 156.885C346.406 158.664 344.365 160.649 341.824 162.353L344.377 156.374C344.92 155.007 344.615 155.544 344.302 154.202C340.189 153.247 341.137 154.383 339.752 157.098C338.072 160.381 338.247 160.842 336.112 161.61C334.015 162.365 331.98 162.939 330.063 163.72C328.047 164.537 326.362 165.374 324.089 165.904C324.227 164.25 325.6 162.496 326.418 161.142C327.579 159.195 329.083 158.04 328.347 156.336C328.053 155.238 327.498 154.92 326.318 155.057C325.051 155.207 324.695 155.906 324.146 156.742C323.047 158.415 322.192 159.888 321.255 161.654C314.426 161.654 313.914 164.668 307.072 166.266C307.272 163.869 308.802 161.541 309.944 159.544C310.287 158.939 310.356 159.026 310.574 158.39C310.968 157.26 310.706 157.104 310.063 156.536C308.003 154.701 303.502 156.923 301.535 158.246C300.1 159.213 299.12 159.9 297.796 160.892C296.41 161.928 295.368 162.827 293.951 163.776C294.332 162.147 295.443 159.351 296.192 157.865C297.184 155.899 298.058 154.42 298.982 152.504L304.519 141.732C305.306 140.44 307.578 137.288 305.2 136.527C302.796 135.759 301.273 138.555 300.555 139.897C300.031 140.877 299.7 141.382 299.113 142.356C297.403 145.214 298.033 144.291 297.097 144.597C296.373 144.834 290.336 145.339 289.331 145.339C289.687 144.01 296.217 133.637 296.423 131.159C292.047 128.844 291.023 131.465 289.937 133.893C288.245 137.681 285.992 141.226 284.581 144.846C283.351 147.998 282.602 146.456 276.697 147.954C274.78 148.441 274.437 149.134 274.437 151.368C276.154 151.368 275.467 151.368 276.528 150.975L282.59 149.24C282.128 151.237 280.991 152.822 280.817 154.913C278.757 154.913 276.559 154.776 274.58 155.063C266.534 156.224 269.874 155.051 266.846 154.345C261.415 153.085 261.777 153.515 259.979 155.356C258.937 156.424 257.732 157.428 256.846 158.602C255.048 160.986 255.185 161.941 254.586 162.727C253.918 163.601 253.294 163.339 250.435 164.962C248.843 165.86 247.263 166.229 245.709 166.971C245.79 163.326 247.838 158.109 247.838 155.275C244.885 153.715 243.786 153.877 239.179 156.898C236.464 158.677 234.416 160.661 231.882 162.365L234.435 156.386C234.978 155.019 234.672 155.556 234.36 154.214C230.677 153.359 231.682 153.178 228.218 160.125C225.615 165.355 225.434 167.034 224.435 169.106L225.577 170.092C228.78 170.167 228.586 169.312 230.371 167.589C231.245 166.74 231.651 166.628 232.506 165.823C233.399 164.987 233.505 164.774 234.56 163.982C236.42 162.584 242.22 158.121 243.58 157.759M258.119 167.321C258.119 161.854 264.037 156.33 264.149 156.33C265.373 156.33 265.523 156.592 266.634 156.686C266.634 159.501 265.797 161.092 263.95 163.576C263.294 164.462 262.408 165.049 261.465 165.698C260.073 166.653 259.505 166.659 258.125 167.321H258.119ZM353.148 196.392C353.148 191.019 356.475 188.404 359.272 185.502C360.339 184.391 360.726 183.604 361.912 182.475C362.986 181.451 363.654 181.114 364.759 179.997C365.814 178.923 366.644 178.393 367.774 177.344C369.122 176.09 372.687 172.969 374.066 172.645C373.898 174.673 362.686 196.186 353.148 196.399V196.392Z" fill="#221E1F"/>
<path d="M426.185 28.0044H404.205V105.283H426.185V28.0044Z" fill="#221E1F"/>
<path fill-rule="evenodd" clip-rule="evenodd" d="M190.757 27.8545C196.806 27.6361 202.099 27.4613 207.855 28.616C213.623 29.7706 216.963 32.0424 223.024 32.0486C233.174 32.0611 231.302 27.1555 255.291 27.8483C254.13 25.4954 251.571 22.6931 249.711 20.8269C234.204 5.32373 211.519 5.57338 196.525 20.6459L193.51 24.01C192.611 25.0085 191.331 26.6937 190.763 27.8483" fill="#FDE300"/>
<path fill-rule="evenodd" clip-rule="evenodd" d="M482.205 161.648C480.85 163.67 479.015 164.762 479.015 168.026C482.049 169.63 484.052 169.187 486.936 167.795C491.855 165.43 490.913 164.981 493.198 163.77C493.198 165.723 493.004 166.897 494.246 167.683C498.198 170.192 502.118 165.48 504.896 164.831C504.746 166.666 503.573 167.065 504.54 169.087C507.636 170.573 508.56 167.895 509.284 165.673C511.151 159.907 517.574 157.903 522.855 156.199C524.41 155.7 525.059 155.694 525.459 154.196C523.823 153.815 520.958 154.233 518.867 154.695C516.307 155.263 514.984 156.006 513.049 157.029C513.579 154.764 514.341 155.063 513.966 153.977C513.654 153.079 512.518 153.004 511.681 153.11C511.475 153.135 510.608 153.054 509.753 154.083L508.236 157.529C506.101 162.94 505.97 162.116 499.708 164.956C498.46 165.524 498.797 165.53 497.093 165.53C497.461 161.117 500.22 160.262 500.283 157.373C499.328 156.917 498.572 156.667 497.093 156.667L494.377 159.619C491.568 161.305 485.613 165.611 482.916 166.241C484.159 164.381 483.84 164.581 485.419 163.077L489.696 159.557C492.655 157.323 496.281 156.043 498.516 154.545C498.098 153.753 497.923 153.478 497.449 152.773C494.671 152.773 495.183 152.442 493.329 153.615L486.824 157.398C485.164 157.866 484.396 158.009 482.804 158.696C480.369 159.757 478.197 161.055 475.775 161.947C472.885 163.015 470.175 163.052 466.243 163.052C468.858 160.78 468.683 161.997 472.423 157.179C473.434 155.881 474.127 155.101 475.188 153.921L477.991 150.339C481.481 146.039 482.698 144.272 485.601 139.51C486.468 138.087 487.561 136.677 486.568 135.322C485.151 133.394 480.9 132.738 477.691 135.497C475.02 137.8 471.024 142.319 468.958 145.202L468.502 145.808C468.459 145.864 468.384 145.939 468.334 145.995C467.772 146.656 468.134 146.113 467.547 146.981C464.17 151.974 464.251 152.43 461.692 156.724C461.055 157.791 461.292 157.479 460.818 158.689L454.401 173.899C452.809 178.449 447.116 197.429 458.059 194.227C459.95 193.678 460.462 193.422 462.079 191.862C466.261 187.817 467.285 186.313 469.208 180.559C470.375 177.064 470.75 173.731 469.938 169.986C469.439 167.702 468.434 167.103 468.009 165.53C472.054 165.53 472.679 165.574 475.706 164.363C476.899 163.888 477.941 163.689 479.102 163.146C480.151 162.653 481.075 161.929 482.192 161.629M464.832 160.587C465.219 158.939 467.304 155.107 468.278 153.753L476.524 141.439C477.548 140.084 480.451 137.307 482.205 136.839C477.361 146.937 474.127 149.871 467.416 157.859C466.374 159.095 466.199 159.676 464.832 160.587ZM457.385 192.492C453.327 188.641 456.96 179.423 458.227 175.609C458.951 173.437 459.401 172.333 460.219 170.51C461.118 168.513 460.806 168.463 462.347 165.549C469.233 170.155 466.299 178.231 463.615 184.191C462.391 186.906 459.932 190.788 457.378 192.492H457.385Z" fill="#221E1F"/>
<path fill-rule="evenodd" clip-rule="evenodd" d="M0 163.776H214.509C214.74 162.915 215.489 161.766 215.926 160.942H0V163.776Z" fill="#FFE400"/>
<path d="M426.897 0H403.494V19.4976H426.897V0Z" fill="#221E1F"/>
<path fill-rule="evenodd" clip-rule="evenodd" d="M412.714 165.904C413.026 162.166 418.082 158.914 416.971 156.33C416.703 155.319 416.646 155.182 415.473 155.045C414.636 154.945 413.906 155.313 413.357 155.9C412.695 156.611 411.578 158.646 411.009 159.588C409.792 161.598 407.401 165.761 407.401 168.388C407.401 169.88 410.473 170.161 410.591 170.161C413.656 170.161 422.221 164.194 424.293 163.664C425.742 163.295 425.348 164.132 426.541 164.132C429.681 164.132 431.154 163.42 434.693 163.42C434.412 163.664 434.537 163.601 434.063 163.857C433.557 164.132 433.707 164.044 433.083 164.294C430.13 165.486 421.216 168.869 421.216 172.283C421.216 173.238 421.384 173.256 421.572 174.055C425.267 174.917 427.546 174.086 431.354 171.783C432.396 171.153 433.102 170.623 434.119 169.942C441.616 164.943 437.128 165.293 440.543 164.313C441.304 164.094 441.972 163.976 442.528 163.82C444.806 163.158 448.077 162.653 449.22 160.942C447.141 159.501 444.987 160.531 441.566 161.448C437.24 162.603 438.838 160.942 435.393 160.942L428.657 161.298C429.256 160.406 429.987 160.025 430.985 159.37C432.396 158.446 432.571 158.596 434.188 157.959C435.168 157.578 438.22 156.455 438.508 155.481C438.963 153.94 437.477 154.202 436.104 154.202C432.846 154.202 426.99 158.221 425.036 160.506C422.92 162.977 423.813 161.666 419.187 163.514C416.959 164.406 415.154 165.33 412.707 165.898M424.768 171.933C425.342 171.072 427.752 169.187 428.894 168.613C430.754 167.683 432.646 167.159 434.344 166.26C434.069 167.284 434.244 166.741 433.645 167.333L430.33 169.693C428.844 170.479 426.572 171.783 424.774 171.933H424.768Z" fill="#221E1F"/>
<path fill-rule="evenodd" clip-rule="evenodd" d="M235.578 49.7739C236.639 47.2025 232.706 41.342 236.489 37.5723C238.106 35.9621 240.141 36.6548 242.332 35.9558C245.06 35.082 244.511 32.9475 240.403 33.1722C235.865 33.4219 230.983 34.3643 231.027 39.3448C231.039 40.7678 232.288 51.1095 235.578 49.7739Z" fill="#FDE300"/>
<path fill-rule="evenodd" clip-rule="evenodd" d="M187.598 33.322L184.04 42.2095C183.697 42.9522 183.915 42.5278 183.659 42.8961C183.653 45.0555 183.453 49.5242 185.788 50.0048C187.53 48.1574 185.8 42.3468 186.93 39.4072C188.285 35.8747 191.456 36.711 194.758 35.5813L194.858 33.1847C193.148 32.7166 189.103 32.0863 187.592 33.3158" fill="#FDE300"/>
<path fill-rule="evenodd" clip-rule="evenodd" d="M331.518 149.24C331.518 145.751 326.942 148.628 326.661 151.169C326.262 154.87 331.518 151.025 331.518 149.24Z" fill="#221E1F"/>
<path fill-rule="evenodd" clip-rule="evenodd" d="M420.155 149.24C420.155 145.751 415.579 148.628 415.298 151.169C414.899 154.87 420.155 151.025 420.155 149.24Z" fill="#221E1F"/>
<path fill-rule="evenodd" clip-rule="evenodd" d="M200.913 34.3456C200.345 32.2298 196.587 32.2485 196.381 34.0647C196.113 36.4801 199.971 35.6749 200.913 34.3456Z" fill="#FDE300"/>
<path fill-rule="evenodd" clip-rule="evenodd" d="M245.741 35.3816C247.607 35.7624 249.636 35.6375 249.892 33.6653C248.781 32.8914 247.52 32.6043 245.778 33.0474C245.435 33.8401 245.428 34.5328 245.741 35.3816Z" fill="#FDE300"/>
<path fill-rule="evenodd" clip-rule="evenodd" d="M220.434 44.6686C222.481 44.2504 223.611 44.0445 225.696 44.6686L224.51 42.2345C221.826 41.7103 221.002 42.4155 220.434 44.6686Z" fill="#FDE300"/>
<path fill-rule="evenodd" clip-rule="evenodd" d="M526.438 24.7341V25.6765C526.438 27.1244 526.957 28.8158 527.45 29.7957L528.136 31.0377C528.836 32.2298 530.484 33.8088 531.726 34.5016C533.199 35.3192 534.941 35.9807 536.701 35.9807C538.081 35.9807 538.574 36.0057 539.96 35.65C541.065 35.3691 541.739 35.0196 542.675 34.514C542.962 34.358 543.193 34.1833 543.449 34.0085C545.447 32.6479 547.051 30.3137 547.657 27.9545C548.275 25.5454 548.069 22.793 546.964 20.5899C546.514 19.6911 546.508 19.7224 546.015 18.9734C545.678 18.4616 545.266 18.0123 544.835 17.5879C543.842 16.5955 543.043 16.0712 541.832 15.4596C540.84 14.9665 539.167 14.436 537.687 14.436H536.745C533.642 14.436 530.134 16.3958 528.417 18.9796C528.324 19.1232 528.236 19.2168 528.155 19.3604L527.468 20.5961C526.975 21.5822 526.445 23.2611 526.445 24.7403M528.623 25.4206C528.605 25.3457 528.661 24.5406 528.673 24.4033C528.704 24.1162 528.754 23.7729 528.811 23.4733C528.867 23.1987 528.948 22.8804 529.035 22.6245C529.622 20.8583 530.671 19.3541 532.194 18.2557C532.5 18.0372 533.193 17.6003 533.53 17.4568C534.391 17.0886 535.028 16.8576 535.996 16.7203C537.225 16.5393 538.611 16.6329 539.797 17.0261C540.315 17.2009 540.84 17.3944 541.296 17.6627C541.545 17.8125 541.732 17.9124 541.963 18.0684C542.4 18.3618 542.8 18.6738 543.174 19.0421C543.549 19.4165 543.855 19.7473 544.173 20.1842C544.329 20.4026 544.454 20.5961 544.592 20.8333C544.723 21.0517 544.866 21.2827 544.972 21.5198C545.203 22.0566 545.378 22.4747 545.534 23.0989C545.852 24.3908 545.89 25.6328 545.628 26.9497C545.153 29.3214 543.636 31.3622 541.601 32.5855C540.64 33.1659 539.585 33.5342 538.443 33.7027C537.931 33.7776 536.976 33.8213 536.414 33.7589C536.127 33.7277 535.79 33.6777 535.484 33.6216C534.903 33.503 534.354 33.3157 533.861 33.1098C532.893 32.7041 531.944 32.0675 531.264 31.3872C529.866 29.9892 529.023 28.4351 528.723 26.4441C528.698 26.2819 528.667 26.0884 528.661 25.9511C528.642 25.5953 528.698 25.8575 528.617 25.4393L528.623 25.4206Z" fill="#221E1F"/>
<path fill-rule="evenodd" clip-rule="evenodd" d="M532.469 30.5071C532.469 30.6069 532.5 30.6319 532.6 30.6319H535.29C535.39 30.6319 535.421 30.6007 535.421 30.5071V26.3567C536.601 26.3567 536.957 26.2194 537.656 26.9433C538.087 27.3865 539.211 29.9516 539.566 30.6319H542.644C542.625 30.4135 542.407 30.0952 542.313 29.8892C542.182 29.6084 542.088 29.3899 541.957 29.134C541.583 28.3851 540.877 26.8685 540.422 26.2693C540.122 25.8761 539.698 25.4579 539.136 25.3269C539.198 25.2832 539.654 25.1209 539.941 24.9337C540.703 24.4406 541.233 23.6854 541.233 22.6307C541.233 21.4885 541.071 20.5586 540.01 19.922C539.304 19.5038 538.28 19.2979 537.176 19.2979H532.475V30.5008L532.469 30.5071ZM536.876 24.3096H535.421V21.4448C536.807 21.4448 538.33 21.2139 538.33 22.8553C538.33 23.8415 537.787 24.3096 536.876 24.3096Z" fill="#221E1F"/>
</g>
<defs>
<clipPath id="clip0_74_274">
<rect width="548" height="200" fill="white"/>
</clipPath>
</defs>
</svg>
