<svg width="677" height="120" viewBox="0 0 677 120" fill="none" xmlns="http://www.w3.org/2000/svg">
<g clip-path="url(#clip0_74_736)">
<path d="M574.679 20.3467L574.429 77.029C568.978 77.7047 564.377 77.978 559.001 77.401C556.648 77.1504 558.409 73.3544 556.754 70.6972C551.887 76.7632 545.077 80.9313 537.075 78.5398C530.781 76.6569 522.278 72.0182 522.171 63.7049L521.602 20.3467H538.7C541.236 34.9842 532.224 63.9251 548.129 62.5585C551.971 62.232 557.293 60.744 557.339 55.4372L557.627 20.3467H574.687H574.679Z" fill="#221E1F"/>
<path d="M296.174 76.4748C290.51 78.3652 285.165 77.6592 279.433 77.2872V20.3316L296.037 20.3164C296.933 22.6168 295.718 24.4996 297.464 26.8228C301.01 23.5658 306.841 15.7004 313.203 19.4205C317.485 21.9259 315.101 31.6286 314.463 36.2749C306.226 37.0797 297.153 40.7542 296.925 49.1586L296.181 76.4748H296.174Z" fill="#221E1F"/>
<path d="M677 32.0082V77.5377L659.963 77.4314L659.902 43.8669C659.894 37.9527 655.62 34.4908 650.564 34.4908C645.507 34.4908 641.271 37.9603 641.21 43.8669L640.838 76.9076C635.06 77.9932 629.951 77.7199 624.127 77.3251L624.074 43.8745C624.067 37.892 619.754 34.5743 614.736 34.468C609.285 34.3541 605.694 38.1198 605.633 44.1934L605.291 77.4162H588.262V20.3316L604.919 20.286C605.838 23.1938 604.57 25.3196 606.255 27.1113C610.841 20.8478 616.626 18.3121 623.148 18.4639C629.366 18.6082 634.719 21.9411 638.522 26.9822C644.649 20.2253 652.94 17.2644 661.732 18.9043C668.155 20.1038 673.955 25.2209 677 32.0082Z" fill="#221E1F"/>
<path d="M423.229 76.953C419.904 61.9284 429.227 35.9256 414.779 34.2477C399.238 32.4484 408.394 65.1778 405.281 76.6494C399.086 78.1526 393.559 78.1678 387.242 76.619L386.862 20.3011C397.621 21.0452 405.57 16.8468 406.534 25.1904C411.704 20.3619 417.064 18.1602 423.465 18.312C428.893 18.4335 433.266 22.4193 437.26 27.0808C443.349 21.2577 449.84 17.9324 457.736 18.4487C485.523 20.286 472.556 55.5662 475.912 77.3782L458.533 77.4313L458.791 45.4005C458.837 39.9418 457.159 36.1913 451.753 34.392C448.2 33.2076 441.739 36.7228 441.542 41.9916C441.101 53.9567 442.255 64.9728 441.056 76.6494C435.346 78.1374 430.419 77.9856 423.222 76.9454L423.229 76.953Z" fill="#221E1F"/>
<path d="M507.685 75.4348C504.459 79.3447 495.226 77.7352 489.714 76.5888L489.229 20.3013L508.186 20.3392L507.693 75.4348H507.685Z" fill="#221E1F"/>
<path d="M224.715 110.176C218.36 112.051 212.735 111.861 206.296 110.29L206.023 20.3466C214.519 21.0602 225.315 16.8466 225.687 25.0992C228.936 22.5179 233.416 18.8661 238.427 18.5473C256.64 17.3781 268.257 31.9548 268.014 48.8168C267.809 63.2113 260.733 74.812 245.67 78.3878C238.761 80.0277 230.812 77.2794 225.072 72.337L224.707 110.176H224.715ZM250.643 48.1866C250.681 41.6651 247.78 37.5502 244.159 35.5307C239.801 33.1012 234.304 32.3724 230.447 35.5762C224.874 40.1998 222.422 45.8559 224.024 52.0358C225.353 57.168 228.686 62.938 235.443 63.7352C244.03 64.7449 250.589 57.2516 250.643 48.1866Z" fill="#221E1F"/>
<path d="M336.579 56.1585C342.228 67.7288 355.514 66.1117 363.387 59.2485C367.236 61.4957 370.858 63.538 373.978 67.4631C364.245 79.2915 348.248 81.9943 335.281 75.6397C322.374 69.3155 316.429 55.0956 319.952 40.9137C323.475 26.7317 336.936 16.7558 352.834 18.836C370.159 21.0984 379.293 38.6209 375.998 55.0805L336.587 56.1585H336.579ZM359.773 43.7076C358.938 37.4137 354.034 32.6004 348.514 32.8965C342.364 33.2229 336.503 36.6621 337.422 43.7303L359.773 43.7V43.7076Z" fill="#221E1F"/>
<path d="M107.863 70.9551C100.491 79.6632 86.7869 81.5764 76.1805 73.7946C60.7607 62.49 60.2444 37.9753 74.1534 25.213C84.2814 15.9203 97.5982 16.3303 108.296 25.5243L108.911 0.0605469L125.917 0.121283V77.4008C120.398 77.6437 115.85 77.7576 110.3 77.4995C108.356 77.4084 109.404 74.2045 107.863 70.9627V70.9551ZM108.25 43.7756C106.527 37.2844 102.29 34.3007 97.4919 33.7313C92.0863 33.0936 86.6654 34.4146 84.3573 39.6683C81.8139 45.4534 80.379 50.487 83.6285 56.0519C85.481 59.2254 89.7023 64.1451 95.0852 63.9021C105.388 63.4314 110.869 53.6377 108.25 43.7756Z" fill="#221E1F"/>
<path d="M18.2367 78.7293C9.04248 77.9549 3.73551 72.9442 1.28321 66.4302C-1.39685 59.3164 -0.0909813 50.9804 7.23553 46.1746C15.8831 40.4957 27.0816 41.179 37.3919 43.9729C37.8095 36.062 29.868 32.2052 23.6879 33.716L10.075 37.0489L4.85157 24.1349C12.8462 20.8171 21.8734 18.0233 31.3029 18.9799C43.5492 20.2174 54.2391 27.5285 54.1404 40.4426C54.0493 52.1571 54.9983 63.8337 53.6393 75.5179C53.2597 78.7976 39.3583 77.6664 38.5004 77.1881C37.2552 76.4821 36.8832 74.2348 36.3214 72.686C31.47 77.1274 24.8419 79.2835 18.2367 78.7293ZM36.4429 55.6419C32.9429 49.6518 18.715 51.732 17.0827 58.9065C15.7085 64.9421 22.4732 65.838 27.0209 66.0506C32.0773 66.2859 39.9201 61.6016 36.4429 55.6419Z" fill="#221E1F"/>
<path fill-rule="evenodd" clip-rule="evenodd" d="M196.601 40.9062C194.589 42.9485 194.726 44.8237 187.528 45.5905C181.409 46.2434 179.875 45.1881 175.351 44.0038C174.872 50.123 165.921 53.5622 160.895 48.9158C159.703 47.815 158.184 45.8562 157.987 43.8899C156.013 44.4441 155.049 45.0363 152.597 45.4539C150.456 45.8183 148.041 45.8335 145.802 45.6133C142.271 45.2641 139.098 44.5656 137.207 41.7793L136.486 40.8379C136.486 47.3595 137.723 52.56 139.629 57.2291C142.15 63.4167 147.35 69.0044 151.837 74.0455L160.781 84.5377C162.315 86.1928 163.491 88.6375 166.544 88.6375C169.383 88.6375 170.894 86.3295 172.207 84.6972C172.61 84.1961 172.921 83.9759 173.323 83.4749L181.166 74.2201C184.605 69.8016 189.988 64.844 192.608 58.9753C192.949 58.2009 193.071 57.9048 193.405 57.1836C195.591 52.5448 196.601 46.2586 196.601 40.9138" fill="#FDE300"/>
<path d="M253.846 107.321H260.406V111.527H248.835V89.1611H253.846V107.321Z" fill="#221E1F"/>
<path d="M278.939 93.7471V111.528H273.928V109.106C273.419 109.895 272.728 110.526 271.863 111.004C270.997 111.482 270.033 111.717 268.978 111.717C267.725 111.717 266.624 111.414 265.667 110.806C264.711 110.199 263.967 109.326 263.443 108.18C262.919 107.033 262.653 105.682 262.653 104.133V93.7471H267.634V103.404C267.634 104.596 267.915 105.515 268.484 106.175C269.054 106.836 269.813 107.162 270.769 107.162C271.726 107.162 272.516 106.836 273.085 106.175C273.654 105.515 273.935 104.596 273.935 103.404V93.7471H278.946H278.939Z" fill="#221E1F"/>
<path d="M292.21 111.528L289.074 106.585L286.44 111.528H281.019L286.409 102.448L280.875 93.7471H286.5L289.636 98.6515L292.27 93.7471H297.691L292.217 102.698L297.843 111.528H292.217H292.21Z" fill="#221E1F"/>
<path d="M315.905 93.7471V111.528H310.895V109.106C310.386 109.895 309.695 110.526 308.829 111.004C307.964 111.482 307 111.717 305.944 111.717C304.692 111.717 303.591 111.414 302.634 110.806C301.678 110.199 300.934 109.326 300.41 108.18C299.886 107.033 299.62 105.682 299.62 104.133V93.7471H304.601V103.404C304.601 104.596 304.882 105.515 305.451 106.175C306.02 106.836 306.78 107.162 307.736 107.162C308.693 107.162 309.482 106.836 310.052 106.175C310.621 105.515 310.902 104.596 310.902 103.404V93.7471H315.913H315.905Z" fill="#221E1F"/>
<path d="M326.709 94.3998C327.59 93.838 328.562 93.5571 329.64 93.5571V99.3271H328.266C327.013 99.3271 326.079 99.6156 325.456 100.2C324.834 100.785 324.523 101.81 324.523 103.275V111.528H319.512V93.7469H324.523V96.7078C325.107 95.7285 325.844 94.9617 326.717 94.3998H326.709Z" fill="#221E1F"/>
<path d="M348.734 93.7471L338.485 119.97H333.094L336.845 110.92L330.194 93.7471H335.789L339.57 104.869L343.321 93.7471H348.742H348.734Z" fill="#221E1F"/>
<path d="M360.153 110.95C358.961 110.419 358.012 109.637 357.298 108.589C356.585 107.549 356.213 106.296 356.167 104.831H361.497C361.573 105.659 361.838 106.289 362.286 106.729C362.734 107.162 363.319 107.382 364.04 107.382C364.761 107.382 365.369 107.2 365.794 106.828C366.227 106.456 366.439 105.94 366.439 105.279C366.439 104.725 366.265 104.269 365.931 103.913C365.589 103.548 365.171 103.252 364.67 103.017C364.169 102.781 363.463 102.516 362.544 102.219C361.216 101.772 360.13 101.324 359.295 100.883C358.452 100.435 357.731 99.7824 357.131 98.9094C356.524 98.0363 356.22 96.905 356.22 95.5005C356.22 93.4203 356.911 91.788 358.3 90.6112C359.69 89.4345 361.497 88.8423 363.721 88.8423C365.946 88.8423 367.813 89.4345 369.195 90.6112C370.577 91.788 371.321 93.4279 371.42 95.5309H365.999C365.961 94.8096 365.718 94.2402 365.27 93.8227C364.822 93.4051 364.245 93.2001 363.539 93.2001C362.932 93.2001 362.446 93.3747 362.074 93.724C361.702 94.0732 361.52 94.5819 361.52 95.2348C361.52 95.956 361.831 96.5179 362.453 96.9202C363.076 97.3226 364.055 97.763 365.384 98.2261C366.713 98.712 367.791 99.1827 368.618 99.6306C369.446 100.079 370.167 100.724 370.767 101.574C371.374 102.424 371.678 103.518 371.678 104.854C371.678 106.19 371.382 107.283 370.782 108.323C370.182 109.364 369.324 110.191 368.193 110.806C367.062 111.421 365.726 111.732 364.184 111.732C362.643 111.732 361.337 111.467 360.145 110.935L360.153 110.95Z" fill="#221E1F"/>
<path d="M390.081 103.943H378.746C378.822 105.051 379.149 105.894 379.726 106.479C380.303 107.063 381.009 107.352 381.851 107.352C383.104 107.352 383.97 106.775 384.456 105.628H389.785C389.512 106.798 389.018 107.845 388.305 108.787C387.591 109.721 386.695 110.457 385.625 110.988C384.554 111.52 383.347 111.786 382.026 111.786C380.424 111.786 378.997 111.414 377.752 110.67C376.499 109.926 375.527 108.863 374.821 107.481C374.115 106.099 373.766 104.482 373.766 102.637C373.766 100.792 374.115 99.1752 374.806 97.7935C375.497 96.4117 376.468 95.3488 377.721 94.6048C378.974 93.8608 380.409 93.4888 382.026 93.4888C383.643 93.4888 385.01 93.8532 386.24 94.5744C387.47 95.2957 388.434 96.3282 389.125 97.6644C389.816 99.0006 390.165 100.565 390.165 102.349C390.165 102.857 390.135 103.389 390.074 103.943H390.081ZM385.048 100.914C385.048 99.98 384.752 99.236 384.167 98.6817C383.582 98.1275 382.846 97.8542 381.973 97.8542C381.1 97.8542 380.424 98.1199 379.847 98.6514C379.27 99.1828 378.913 99.9344 378.777 100.914H385.04H385.048Z" fill="#221E1F"/>
<path d="M400.012 94.3998C400.893 93.838 401.864 93.5571 402.942 93.5571V99.3271H401.568C400.316 99.3271 399.382 99.6156 398.759 100.2C398.137 100.785 397.825 101.81 397.825 103.275V111.528H392.814V93.7469H397.825V96.7078C398.41 95.7285 399.146 94.9617 400.019 94.3998H400.012Z" fill="#221E1F"/>
<path d="M412.691 106.426L416.237 93.7393H421.567L415.766 111.52H409.586L403.786 93.7393H409.146L412.691 106.426Z" fill="#221E1F"/>
<path d="M424.042 91.0516C423.487 90.4898 423.207 89.7914 423.207 88.9638C423.207 88.1363 423.487 87.4075 424.042 86.8456C424.596 86.2838 425.317 86.0029 426.19 86.0029C427.063 86.0029 427.754 86.2838 428.316 86.8456C428.87 87.4075 429.151 88.1135 429.151 88.9638C429.151 89.8141 428.87 90.4898 428.316 91.0516C427.762 91.6135 427.048 91.8944 426.19 91.8944C425.332 91.8944 424.596 91.6135 424.042 91.0516ZM428.681 93.7468V111.527H423.67V93.7468H428.681Z" fill="#221E1F"/>
<path d="M432.355 97.7935C433.046 96.4117 434.018 95.3488 435.255 94.6048C436.493 93.8608 437.913 93.4888 439.515 93.4888C441.565 93.4888 443.28 94.0734 444.655 95.2425C446.029 96.4117 446.932 98.0592 447.365 100.185H442.035C441.587 98.826 440.714 98.1427 439.431 98.1427C438.512 98.1427 437.784 98.5299 437.237 99.3043C436.69 100.079 436.417 101.187 436.417 102.637C436.417 104.087 436.69 105.196 437.237 105.97C437.784 106.744 438.512 107.132 439.431 107.132C440.722 107.132 441.587 106.448 442.035 105.089H447.365C446.932 107.17 446.029 108.81 444.639 109.994C443.25 111.186 441.542 111.778 439.515 111.778C437.913 111.778 436.493 111.406 435.255 110.662C434.018 109.918 433.046 108.855 432.355 107.473C431.664 106.092 431.315 104.474 431.315 102.63C431.315 100.785 431.664 99.1676 432.355 97.7859V97.7935Z" fill="#221E1F"/>
<path d="M465.351 103.943H454.016C454.092 105.051 454.418 105.894 454.995 106.479C455.572 107.063 456.278 107.352 457.121 107.352C458.374 107.352 459.239 106.775 459.725 105.628H465.055C464.781 106.798 464.288 107.845 463.574 108.787C462.861 109.721 461.965 110.457 460.894 110.988C459.824 111.52 458.617 111.786 457.296 111.786C455.694 111.786 454.266 111.414 453.021 110.67C451.768 109.926 450.797 108.863 450.09 107.481C449.384 106.099 449.035 104.482 449.035 102.637C449.035 100.792 449.384 99.1752 450.075 97.7935C450.766 96.4117 451.738 95.3488 452.991 94.6048C454.243 93.8608 455.678 93.4888 457.296 93.4888C458.913 93.4888 460.279 93.8532 461.509 94.5744C462.739 95.2957 463.703 96.3282 464.394 97.6644C465.085 99.0006 465.434 100.565 465.434 102.349C465.434 102.857 465.404 103.389 465.343 103.943H465.351ZM460.31 100.914C460.31 99.98 460.014 99.236 459.429 98.6817C458.844 98.1275 458.108 97.8542 457.235 97.8542C456.362 97.8542 455.686 98.1199 455.109 98.6514C454.532 99.1828 454.175 99.9344 454.038 100.914H460.302H460.31Z" fill="#221E1F"/>
<path d="M468.031 97.7932C468.661 96.4114 469.526 95.3485 470.62 94.6045C471.713 93.8605 472.935 93.4885 474.279 93.4885C475.35 93.4885 476.337 93.7314 477.225 94.2249C478.113 94.7108 478.812 95.3713 479.32 96.1989V87.9463H484.331V111.527H479.32V108.976C478.85 109.827 478.182 110.502 477.316 111.019C476.451 111.527 475.433 111.785 474.287 111.785C472.943 111.785 471.721 111.406 470.627 110.654C469.534 109.903 468.669 108.824 468.038 107.435C467.401 106.046 467.089 104.436 467.089 102.607C467.089 100.777 467.408 99.1749 468.038 97.7932H468.031ZM478.28 99.4179C477.589 98.6283 476.747 98.2411 475.745 98.2411C474.742 98.2411 473.907 98.6283 473.209 99.4027C472.51 100.177 472.169 101.248 472.169 102.607C472.169 103.966 472.518 105.044 473.209 105.841C473.9 106.638 474.75 107.033 475.745 107.033C476.739 107.033 477.582 106.638 478.28 105.856C478.971 105.074 479.32 103.996 479.32 102.637C479.32 101.278 478.971 100.207 478.28 99.4179Z" fill="#221E1F"/>
<path d="M506.964 107.572H499.288L498.058 111.52H492.82L500.26 89.1538H506.061L513.501 111.52H508.202L506.972 107.572H506.964ZM505.673 103.366L503.122 95.1743L500.602 103.366H505.666H505.673Z" fill="#221E1F"/>
<path d="M522.778 94.2556C523.636 93.7469 524.646 93.4888 525.793 93.4888C527.136 93.4888 528.359 93.8608 529.452 94.6048C530.545 95.3488 531.411 96.4117 532.041 97.7935C532.679 99.1752 532.99 100.777 532.99 102.607C532.99 104.437 532.671 106.046 532.041 107.435C531.403 108.825 530.545 109.903 529.452 110.654C528.359 111.406 527.136 111.786 525.793 111.786C524.661 111.786 523.659 111.527 522.794 111.019C521.928 110.51 521.245 109.85 520.759 109.045V120.008H515.748V93.7545H520.759V96.2751C521.245 95.4475 521.921 94.7794 522.778 94.2708V94.2556ZM526.863 99.403C526.172 98.6286 525.314 98.2414 524.297 98.2414C523.28 98.2414 522.46 98.6362 521.761 99.4182C521.07 100.208 520.721 101.278 520.721 102.637C520.721 103.996 521.07 105.067 521.761 105.856C522.452 106.646 523.302 107.033 524.297 107.033C525.291 107.033 526.142 106.638 526.848 105.841C527.554 105.044 527.903 103.966 527.903 102.607C527.903 101.248 527.554 100.177 526.863 99.403Z" fill="#221E1F"/>
<path d="M535.595 97.7935C536.225 96.4117 537.09 95.3488 538.183 94.6048C539.277 93.8608 540.499 93.4888 541.843 93.4888C542.997 93.4888 544.007 93.7469 544.872 94.2556C545.738 94.7642 546.413 95.4323 546.877 96.2599V93.7393H551.887V111.52H546.877V108.999C546.391 109.827 545.707 110.495 544.842 111.004C543.969 111.512 542.959 111.77 541.813 111.77C540.484 111.77 539.277 111.391 538.183 110.639C537.09 109.888 536.225 108.81 535.595 107.42C534.957 106.031 534.646 104.421 534.646 102.592C534.646 100.762 534.964 99.16 535.595 97.7783V97.7935ZM545.844 99.4182C545.153 98.6286 544.31 98.2414 543.308 98.2414C542.306 98.2414 541.471 98.6286 540.772 99.403C540.074 100.177 539.732 101.248 539.732 102.607C539.732 103.966 540.082 105.044 540.772 105.841C541.463 106.638 542.314 107.033 543.308 107.033C544.303 107.033 545.146 106.638 545.844 105.856C546.535 105.074 546.884 103.996 546.884 102.637C546.884 101.278 546.535 100.208 545.844 99.4182Z" fill="#221E1F"/>
<path d="M562.721 94.3998C563.602 93.838 564.574 93.5571 565.652 93.5571V99.3271H564.278C563.025 99.3271 562.091 99.6156 561.469 100.2C560.846 100.785 560.535 101.81 560.535 103.275V111.528H555.524V93.7469H560.535V96.7078C561.119 95.7285 561.856 94.9617 562.729 94.3998H562.721Z" fill="#221E1F"/>
<path d="M577.162 106.904V111.527H574.611C572.796 111.527 571.377 111.041 570.367 110.077C569.349 109.113 568.841 107.534 568.841 105.347V98.2716H566.852V93.7467H568.841V89.4116H573.852V93.7467H577.131V98.2716H573.852V105.408C573.852 105.94 573.965 106.319 574.201 106.554C574.436 106.79 574.823 106.904 575.37 106.904H577.154H577.162Z" fill="#221E1F"/>
<path d="M605.64 95.5615C606.84 96.8977 607.44 98.7577 607.44 101.134V111.52H602.459V101.863C602.459 100.716 602.178 99.8282 601.624 99.2057C601.07 98.5755 600.303 98.2642 599.323 98.2642C598.344 98.2642 597.577 98.5755 597.023 99.2057C596.469 99.8358 596.188 100.716 596.188 101.863V111.52H591.207V101.863C591.207 100.716 590.926 99.8282 590.372 99.2057C589.818 98.5755 589.051 98.2642 588.072 98.2642C587.092 98.2642 586.333 98.5755 585.771 99.2057C585.217 99.8358 584.936 100.716 584.936 101.863V111.52H579.925V93.7394H584.936V95.9715C585.445 95.2274 586.105 94.6353 586.925 94.2025C587.745 93.7698 588.672 93.5496 589.712 93.5496C590.942 93.5496 592.042 93.8381 593.007 94.4075C593.971 94.9845 594.73 95.7968 595.277 96.8597C595.846 95.8803 596.613 95.0832 597.592 94.4682C598.572 93.8533 599.635 93.542 600.789 93.542C602.816 93.542 604.433 94.2101 605.633 95.5463L605.64 95.5615Z" fill="#221E1F"/>
<path d="M626.276 103.943H614.941C615.017 105.051 615.343 105.894 615.92 106.479C616.497 107.063 617.203 107.352 618.046 107.352C619.299 107.352 620.164 106.775 620.65 105.628H625.98C625.707 106.798 625.213 107.845 624.5 108.787C623.786 109.721 622.89 110.457 621.82 110.988C620.749 111.52 619.542 111.786 618.221 111.786C616.619 111.786 615.192 111.414 613.946 110.67C612.694 109.926 611.722 108.863 611.016 107.481C610.31 106.099 609.96 104.482 609.96 102.637C609.96 100.792 610.31 99.1752 611.001 97.7935C611.691 96.4117 612.663 95.3488 613.916 94.6048C615.169 93.8608 616.604 93.4888 618.221 93.4888C619.838 93.4888 621.205 93.8532 622.434 94.5744C623.664 95.2957 624.629 96.3282 625.32 97.6644C626.01 99.0006 626.36 100.565 626.36 102.349C626.36 102.857 626.329 103.389 626.269 103.943H626.276ZM621.235 100.914C621.235 99.98 620.939 99.236 620.354 98.6817C619.77 98.1275 619.033 97.8542 618.16 97.8542C617.287 97.8542 616.611 98.1199 616.034 98.6514C615.457 99.1828 615.1 99.9344 614.964 100.914H621.227H621.235Z" fill="#221E1F"/>
<path d="M643.541 95.5764C644.68 96.9278 645.257 98.7802 645.257 101.134V111.52H640.276V101.863C640.276 100.671 639.995 99.752 639.426 99.0915C638.856 98.431 638.097 98.1045 637.141 98.1045C636.184 98.1045 635.425 98.431 634.855 99.0915C634.286 99.752 634.005 100.671 634.005 101.863V111.52H628.994V93.7391H634.005V96.1002C634.514 95.3107 635.197 94.6957 636.055 94.2326C636.913 93.7771 637.877 93.5493 638.955 93.5493C640.868 93.5493 642.394 94.225 643.541 95.5764Z" fill="#221E1F"/>
<path d="M657.844 106.904V111.527H655.293C653.479 111.527 652.059 111.041 651.049 110.077C650.032 109.113 649.523 107.534 649.523 105.347V98.2716H647.534V93.7467H649.523V89.4116H654.534V93.7467H657.814V98.2716H654.534V105.408C654.534 105.94 654.648 106.319 654.883 106.554C655.119 106.79 655.506 106.904 656.053 106.904H657.837H657.844Z" fill="#221E1F"/>
<path d="M663.47 110.988C662.354 110.457 661.481 109.728 660.836 108.802C660.19 107.875 659.834 106.843 659.75 105.697H664.7C664.761 106.311 665.019 106.813 665.49 107.192C665.96 107.572 666.537 107.769 667.221 107.769C667.843 107.769 668.329 107.64 668.671 107.374C669.013 107.109 669.18 106.767 669.18 106.342C669.18 105.833 668.937 105.454 668.451 105.211C667.965 104.968 667.175 104.694 666.082 104.398C664.913 104.102 663.933 103.791 663.151 103.457C662.369 103.13 661.694 102.607 661.132 101.893C660.562 101.179 660.281 100.223 660.281 99.0079C660.281 97.9906 660.54 97.0568 661.056 96.2216C661.572 95.3865 662.331 94.7184 663.341 94.2325C664.343 93.7466 665.543 93.4961 666.925 93.4961C668.975 93.4961 670.592 94.0503 671.769 95.1512C672.953 96.2596 673.629 97.7249 673.803 99.547H669.18C669.104 98.932 668.853 98.4461 668.436 98.0817C668.018 97.7173 667.464 97.5427 666.78 97.5427C666.196 97.5427 665.748 97.6641 665.437 97.9071C665.125 98.15 664.966 98.4841 664.966 98.9092C664.966 99.4179 665.216 99.8051 665.71 100.056C666.211 100.314 666.985 100.564 668.041 100.822C669.248 101.164 670.235 101.498 671.002 101.825C671.761 102.151 672.429 102.682 673.006 103.419C673.583 104.155 673.879 105.135 673.902 106.365C673.902 107.405 673.636 108.339 673.097 109.151C672.558 109.971 671.791 110.609 670.782 111.079C669.779 111.542 668.61 111.778 667.282 111.778C665.854 111.778 664.586 111.512 663.478 110.981L663.47 110.988Z" fill="#221E1F"/>
<path d="M507.655 0H489.51V14.2275H507.655V0Z" fill="#221E1F"/>
<path fill-rule="evenodd" clip-rule="evenodd" d="M136.485 40.8454L137.207 41.7868C139.097 44.5655 142.271 45.2716 145.801 45.6208C148.041 45.841 150.455 45.8258 152.596 45.4614C155.056 45.0438 156.02 44.4516 157.987 43.8974C158.511 43.4115 158.731 43.3736 159.171 42.9029C161.449 40.443 163.635 33.9594 164.645 32.3955C165.063 30.748 165.662 30.2317 167.621 30.6189L168.487 32.3955C168.988 33.4887 169.413 34.5364 169.899 35.5082C170.423 36.5635 170.802 37.5808 171.372 38.7045C172.541 41.0352 173.399 42.5536 175.35 44.0113C179.868 45.1957 181.409 46.251 187.528 45.598C194.726 44.8313 194.589 42.9484 196.601 40.9137C196.775 40.2077 198.059 37.5353 198.734 34.787C199.577 31.3326 198.734 30.8922 201.528 29.0322V22.298C199.638 21.3946 192.721 20.0356 190.125 20.1115C172.594 19.6104 173.968 23.1939 166.543 23.1863C162.117 23.1863 159.672 21.5236 155.458 20.6809C151.252 19.8382 147.388 19.9673 142.962 20.1267C142.438 20.2026 140.874 20.2482 139.993 20.3772C137.662 20.7265 133.32 21.4629 131.558 22.3056V29.0398C134.549 31.0441 133.077 29.7838 134.375 34.5136C134.663 35.5538 134.906 36.7229 135.293 37.7403C135.726 38.8791 136.159 39.7142 136.485 40.853M150.387 24.849C149.696 25.8207 146.879 26.4053 147.077 24.644C147.228 23.3154 149.969 23.3002 150.387 24.849ZM175.722 36.1308C173.315 37.1025 172.404 29.5484 172.397 28.5083C172.366 24.8717 175.935 24.1809 179.245 23.9987C182.244 23.8316 182.646 25.3956 180.657 26.0333C179.063 26.542 177.567 26.0333 176.39 27.2177C173.627 29.9736 176.504 34.2555 175.722 36.1383V36.1308ZM183.147 25.6082C182.92 24.9932 182.92 24.4845 183.178 23.9C184.453 23.5735 185.372 23.7861 186.184 24.3555C186.002 25.798 184.514 25.8891 183.155 25.6082H183.147ZM137.784 31.0972C137.784 29.6168 137.518 27.6352 137.951 26.337C138.346 25.1602 139.279 24.2112 140.661 24.0974C141.762 23.2015 144.723 23.6646 145.968 23.9987L145.892 25.7524C143.478 26.58 141.162 25.965 140.168 28.5463C139.34 30.6948 140.608 34.9388 139.333 36.2902C137.624 35.9334 137.769 32.6764 137.776 31.0972H137.784Z" fill="#221E1F"/>
<path fill-rule="evenodd" clip-rule="evenodd" d="M142.969 20.1038C147.396 19.9443 151.26 19.8153 155.466 20.658C159.68 21.5007 162.124 23.1634 166.551 23.1634C173.968 23.1634 172.602 19.5875 190.132 20.0886C189.282 18.3652 187.414 16.3229 186.055 14.9563C174.72 3.62141 158.146 3.80362 147.191 14.8273L144.989 17.2871C144.336 18.0159 143.394 19.2459 142.984 20.0962" fill="#FDE300"/>
<path fill-rule="evenodd" clip-rule="evenodd" d="M175.723 36.1306C176.497 34.2554 173.627 29.9659 176.391 27.2099C177.567 26.0332 179.063 26.5418 180.658 26.0256C182.647 25.3879 182.244 23.8239 179.245 23.9909C175.928 24.1731 172.367 24.864 172.397 28.5006C172.405 29.5407 173.316 37.0948 175.723 36.123" fill="#FDE300"/>
<path fill-rule="evenodd" clip-rule="evenodd" d="M140.661 24.1048L138.065 30.6036C137.814 31.1503 137.974 30.8314 137.784 31.1047C137.784 32.6839 137.632 35.9484 139.34 36.2977C140.616 34.9463 139.348 30.7023 140.175 28.5538C141.17 25.9725 143.486 26.5799 145.9 25.7599L145.976 24.0061C144.723 23.6645 141.77 23.2014 140.669 24.1048" fill="#FDE300"/>
<path fill-rule="evenodd" clip-rule="evenodd" d="M150.387 24.8487C149.969 23.2999 147.221 23.3151 147.077 24.6437C146.879 26.4051 149.704 25.8205 150.387 24.8487Z" fill="#FDE300"/>
<path fill-rule="evenodd" clip-rule="evenodd" d="M183.148 25.6081C184.514 25.889 185.995 25.7979 186.177 24.3554C185.365 23.786 184.446 23.5811 183.17 23.8999C182.92 24.4769 182.912 24.9856 183.14 25.6081" fill="#FDE300"/>
<path fill-rule="evenodd" clip-rule="evenodd" d="M164.653 32.3954C166.149 32.0917 166.976 31.9399 168.502 32.3954L167.637 30.6189C165.678 30.2317 165.07 30.7479 164.66 32.3954" fill="#FDE300"/>
</g>
<defs>
<clipPath id="clip0_74_736">
<rect width="677" height="120" fill="white"/>
</clipPath>
</defs>
</svg>
